<svg width="24" height="24" viewBox="0 0 24 24" fill="none" xmlns="http://www.w3.org/2000/svg">
<path d="M1.30001 16.9104L4.49831 13.7121C5.64055 12.5699 7.58238 13.0268 8.03928 14.5117C8.38195 15.5398 9.5242 16.1109 10.5522 15.8824C12.8367 15.3113 15.9208 12.3414 16.4919 9.94271C16.8346 8.91464 16.1492 7.77239 15.1212 7.42976C13.6363 6.97286 13.1794 5.03104 14.3216 3.88879L17.5199 0.6905C18.4337 -0.109073 19.8044 -0.109073 20.604 0.6905L22.7743 2.86077C24.9445 5.14527 22.5458 11.1992 17.1773 16.5677C11.8087 21.9363 5.75478 24.4493 3.47028 22.1648L1.30001 19.9945C0.500395 19.0807 0.500395 17.71 1.30001 16.9104Z" fill="#11974B"/>
</svg>
