<svg width="24" height="25" viewBox="0 0 24 25" fill="none" xmlns="http://www.w3.org/2000/svg">
<path d="M23.1031 21.4857L23.2304 21.3534C23.3186 21.2702 23.392 21.1624 23.4704 21.0645C23.6222 20.8539 23.7545 20.6237 23.8524 20.3592C23.9455 20.0947 23.9994 19.8058 23.9994 19.5119C24.0042 19.2181 23.9406 18.9291 23.8426 18.6646C23.7937 18.5324 23.7349 18.4099 23.6712 18.2875C23.5977 18.17 23.5439 18.0622 23.4508 17.9447L23.3186 17.7732L23.2255 17.6704L23.201 17.6459L23.1521 17.592L23.1031 17.5431L23.0051 17.4402L21.4379 15.8289L20.6494 15.0257L20.2526 14.6241C20.0665 14.4428 19.8706 14.2714 19.6306 14.1294C19.3907 13.9874 19.1262 13.8649 18.8323 13.7964C18.5385 13.7278 18.2299 13.7131 17.9263 13.7523C17.6226 13.7866 17.3385 13.8894 17.0839 14.0118C16.9516 14.0755 16.839 14.149 16.7214 14.2224C16.6627 14.2616 16.599 14.3106 16.5402 14.3596L16.4521 14.433L16.3982 14.482L16.2562 14.6094L16.1582 14.7073L15.9574 14.9081L15.5558 15.3048L14.7575 16.1031L14.6987 16.1619C14.4391 16.0346 14.209 15.9268 14.0277 15.8142C13.969 15.7799 13.8906 15.7309 13.8171 15.6819L13.5967 15.5399C13.4498 15.442 13.3029 15.344 13.1609 15.2363C12.8719 15.0306 12.5927 14.8151 12.3185 14.5849C11.2214 13.6837 10.2272 12.6209 9.33579 11.4896C8.9048 10.9312 8.52768 10.3582 8.23872 9.75579C8.23382 9.74599 8.22892 9.7362 8.22892 9.7313L8.895 9.07012L9.69822 8.2767C9.75699 8.22283 9.85494 8.11998 9.9382 8.02692C10.0264 7.93386 10.1047 7.82612 10.1831 7.72327C10.3398 7.50287 10.472 7.25309 10.57 6.97882C10.7708 6.42049 10.7512 5.72992 10.521 5.20098C10.472 5.06384 10.4035 4.9414 10.3349 4.81896C10.2614 4.70142 10.1978 4.59367 10.0998 4.47612C10.0557 4.42225 10.0068 4.35368 9.96759 4.3096L9.87453 4.20675L9.79617 4.12349L9.74719 4.07452L9.64924 3.97167C9.27702 3.58965 8.56196 3.11948 8.28769 3.01662C7.74895 2.81582 8.08689 3.43782 8.6942 4.26553C8.93418 4.60836 9.24273 4.9414 9.41905 5.33811C9.59536 5.72992 9.61985 6.17071 9.45823 6.53803C9.37987 6.72414 9.26722 6.89067 9.12519 7.04249C9.05662 7.12085 8.97826 7.18942 8.8999 7.25799L8.63543 7.48328C8.273 7.79183 7.90568 8.10528 7.53835 8.42853C7.35714 8.59015 7.17103 8.75177 6.98492 8.91829L6.91145 8.98686C6.86248 9.03584 6.82819 9.07502 6.78901 9.13379C6.71065 9.23664 6.64208 9.42275 6.64208 9.58437C6.64208 9.74599 6.67637 9.86844 6.70575 9.95659L6.77922 10.1525C6.97512 10.657 7.21511 11.132 7.49427 11.5924C7.77344 12.0528 8.08199 12.4887 8.41013 12.9099C8.56686 13.1107 8.73828 13.3213 8.90969 13.527C9.08111 13.7278 9.25743 13.9286 9.43374 14.1294C10.3006 15.0795 11.2557 15.9611 12.3087 16.73C12.5731 16.9211 12.8376 17.1023 13.1217 17.2835C13.4449 17.4794 13.7339 17.6165 13.9984 17.7537L14.1894 17.8565L14.302 17.9202C14.3216 17.93 14.3951 17.9643 14.4391 17.9789C14.4832 17.9985 14.5371 18.0132 14.591 18.023C14.7036 18.0475 14.8505 18.0622 14.9926 18.0377C15.1346 18.0181 15.2668 17.9643 15.3648 17.9104C15.4676 17.8565 15.5362 17.7977 15.595 17.7439C15.6244 17.7194 15.6489 17.6949 15.6733 17.6704L15.7125 17.6312L16.3835 16.9798L17.0545 16.3284L17.3875 16.0003L17.4708 15.917L17.5051 15.8827L17.5247 15.8632L17.6128 15.7848L17.6569 15.7456L17.6814 15.7309C17.7304 15.6917 17.8283 15.633 17.9067 15.5987C17.985 15.5644 18.0634 15.5399 18.1369 15.5301C18.2838 15.5056 18.4209 15.5301 18.5728 15.5987C18.6462 15.633 18.7246 15.6819 18.8029 15.7407C18.8421 15.7701 18.8813 15.7995 18.9156 15.8387L18.9695 15.8925L19.0527 15.9758L19.709 16.6468L21.0167 17.9838L21.673 18.6548L21.8395 18.8213L21.8591 18.8409L21.8885 18.8752L21.9668 18.9634C22.0011 18.9977 21.9962 19.0026 22.0109 19.0221C22.0207 19.0368 22.0305 19.0515 22.0403 19.0613C22.0599 19.1005 22.0893 19.1397 22.1089 19.174C22.1872 19.3258 22.2166 19.4531 22.2068 19.5805C22.2019 19.7078 22.148 19.8449 22.0452 19.9968C21.9962 20.0702 21.9276 20.1486 21.8591 20.227L21.5407 20.5404L20.8649 21.2065C20.6347 21.4318 20.4045 21.6669 20.1792 21.9167L20.0323 22.0685C19.9833 22.1224 19.9588 22.137 19.9196 22.1713C19.8363 22.2399 19.7482 22.3134 19.6551 22.3672C19.2927 22.6023 18.8617 22.715 18.3573 22.7297C18.2299 22.7297 18.1026 22.7297 17.9752 22.7199L17.7451 22.7052L17.5491 22.6856C17.2749 22.6513 16.9908 22.6072 16.7165 22.5485C15.5999 22.3085 14.5126 21.8628 13.4106 21.3142C12.3674 20.7559 11.3487 20.1094 10.3937 19.3993C8.87051 18.2777 7.49427 16.9602 6.26986 15.5154C5.04545 14.0657 3.96797 12.5034 3.13047 10.8284C2.92477 10.4072 2.72886 9.98598 2.55255 9.55499L2.42521 9.23174L2.36154 9.07502L2.29787 8.9036C2.21951 8.6881 2.14604 8.4775 2.07747 8.25711C1.8081 7.39512 1.67097 6.54293 1.73464 5.72013C1.76402 5.37239 1.86687 5.04425 2.04319 4.76509C2.08727 4.69652 2.13625 4.62795 2.19012 4.55938C2.21461 4.5251 2.24889 4.49571 2.27338 4.46143L2.38113 4.35368L2.89538 3.82474L3.91899 2.76684L4.15408 2.52196L4.28631 2.39462C4.3108 2.37993 4.33039 2.36034 4.34998 2.34075C4.46753 2.25259 4.58997 2.18892 4.70261 2.15464C4.95729 2.08607 5.22666 2.13505 5.51562 2.32116C5.54991 2.34075 5.58419 2.37013 5.61847 2.39462L5.67235 2.4338L5.74091 2.48768C5.82907 2.56114 5.91723 2.62971 6.00049 2.69828C6.16701 2.83051 6.32863 2.95296 6.47556 3.0607C7.06818 3.4868 7.48448 3.66311 7.58243 3.44762C7.67059 3.25171 7.48938 2.82072 7.08777 2.233C6.98492 2.08607 6.87227 1.92935 6.74493 1.76283C6.68126 1.67957 6.61759 1.6012 6.53923 1.50325C6.45107 1.4053 6.35312 1.30245 6.24048 1.20939C6.01518 1.01838 5.72622 0.846966 5.37849 0.749013C5.03076 0.646162 4.62425 0.646162 4.24223 0.749013C4.07082 0.793092 3.90919 0.861659 3.75737 0.940021C3.60554 1.01838 3.46841 1.11144 3.32148 1.22408L3.2676 1.26327L3.23332 1.29265L3.15985 1.35632L3.12557 1.38571L3.07659 1.43468L3.00803 1.50325L2.72886 1.76772L1.6024 2.84521L1.32324 3.11458L1.1812 3.25171C1.12243 3.30559 1.06856 3.35946 1.01468 3.41823C0.799187 3.64842 0.608179 3.91289 0.456352 4.20186C0.304525 4.49082 0.191879 4.79447 0.123312 5.10792C0.103721 5.18628 0.0939257 5.26465 0.0743351 5.34301C0.0645398 5.42137 0.0449492 5.52422 0.0400515 5.57809C0.0204609 5.72992 0.0155633 5.86706 0.00576797 6.01399C-0.0432085 7.17963 0.206572 8.30119 0.559202 9.32969C0.906935 10.3484 1.33793 11.3377 1.85218 12.2732C2.67009 13.7866 3.679 15.1922 4.77118 16.4803C5.88295 17.7879 7.11226 18.9732 8.45911 20.0311C9.80596 21.0841 11.2508 21.995 12.7837 22.7542C14.2922 23.5035 15.9574 24.1549 17.7451 24.2773C18.5238 24.3851 19.469 24.3459 20.3016 23.9247C20.5122 23.8218 20.7081 23.6994 20.8893 23.5574C20.9775 23.4888 21.0706 23.4153 21.1636 23.3272L21.2322 23.2635L21.2812 23.2145L21.3791 23.1166L21.5799 22.9109L21.7709 22.7248L22.1627 22.3525L22.9904 21.5885L23.1031 21.4857Z" fill="url(#paint0_linear_1_131)"/>
<defs>
<linearGradient id="paint0_linear_1_131" x1="14.0997" y1="9.85118" x2="4.43887" y2="23.7697" gradientUnits="userSpaceOnUse">
<stop stop-color="#8FC640"/>
<stop offset="1" stop-color="#04924C"/>
</linearGradient>
</defs>
</svg>
