<svg width="24" height="19" viewBox="0 0 24 19" fill="none" xmlns="http://www.w3.org/2000/svg">
<path d="M21.1314 2.08933C21.1705 2.08933 21.1754 2.09422 21.1851 2.09911C21.1949 2.10399 21.2047 2.10399 21.2145 2.10399C21.2291 2.10399 21.2633 2.11377 21.2975 2.12354C21.3317 2.13331 21.3659 2.1382 21.3953 2.15286C21.5223 2.19684 21.6494 2.26037 21.7569 2.34833C21.9719 2.51936 22.1429 2.75881 22.2065 3.0227C22.2309 3.08622 22.2358 3.15952 22.2456 3.22794L22.2553 3.33545V3.52114L22.2602 4.25415L22.2749 5.72505C22.2993 7.68463 22.3335 9.6442 22.3873 11.5989C22.4459 13.8223 22.6707 15.6695 23.1105 15.5034C23.5161 15.3519 23.8142 13.7735 23.8582 11.4914C23.8973 9.43896 23.9364 7.38165 23.9755 5.31945L23.995 3.77525L23.9999 3.3892C23.9999 3.33545 23.995 3.23282 23.995 3.14975C23.995 3.06179 23.9852 2.97383 23.9706 2.89075C23.9217 2.5438 23.8142 2.20661 23.6529 1.89386C23.3255 1.27325 22.7733 0.779691 22.1234 0.510922C22.0403 0.481602 21.9572 0.447395 21.8742 0.422961L21.6201 0.354547C21.5272 0.335 21.4246 0.32034 21.3269 0.310566L21.2536 0.300793L21.2047 0.295906L21.107 0.291019L20.9701 0.286133H20.2958C16.9874 0.295906 13.6791 0.325227 10.3708 0.359434L5.41081 0.413187L4.17447 0.427848L3.55385 0.432734L3.24599 0.437621H3.1678L3.07007 0.442508L2.86971 0.457168C2.33706 0.520695 1.82396 0.725938 1.40858 1.05823C0.993214 1.38564 0.665804 1.83034 0.489882 2.33367C0.397034 2.55357 0.338393 2.77836 0.2993 3.0569L0.28464 3.19862L0.279753 3.26703V3.36965L0.269979 3.6482L0.225999 4.76237C0.201565 5.50515 0.177132 6.24793 0.147811 6.9956C0.103831 8.48605 0.0696238 9.98138 0.0451902 11.4767L0.0158699 13.7246L0.00609649 14.8486L0.00120977 15.4105C-0.00367695 15.4887 0.00609649 15.6353 0.0109832 15.7673C0.0158699 15.8992 0.0451902 16.0311 0.0647371 16.1631C0.279753 17.2235 1.05674 18.1422 2.07807 18.5087C2.20512 18.5576 2.33218 18.5918 2.46412 18.626C2.59117 18.6602 2.76709 18.6797 2.90881 18.6993L3.05052 18.7091L3.11894 18.714H4.64848L13.6743 18.6993H18.1847L20.4375 18.7091L20.9994 18.714C21.2633 18.7091 21.537 18.6846 21.796 18.6162C22.3237 18.4892 22.8124 18.2204 23.2034 17.8539C23.4868 17.5949 23.7556 17.16 23.8679 16.7397C23.8973 16.6322 23.9168 16.5296 23.9315 16.4319C23.9412 16.3341 23.951 16.2364 23.9559 16.1533C23.9608 16.0653 23.9559 15.9725 23.9461 15.8992C23.9412 15.8601 23.9364 15.8259 23.9364 15.7966C23.9315 15.7673 23.9217 15.7526 23.9168 15.7331C23.8093 15.4643 23.7018 15.4985 23.5894 15.7282C23.565 15.7819 23.521 15.8797 23.4868 15.9627C23.4526 16.0556 23.3988 16.1435 23.35 16.2462C23.2376 16.4416 23.1007 16.6566 22.915 16.8521C22.6121 17.1746 22.226 17.4092 21.8106 17.5216C21.6054 17.5802 21.3904 17.5949 21.1754 17.5949C20.9701 17.5851 20.7307 17.5509 20.5059 17.5314C19.5872 17.4385 18.6392 17.3603 17.6618 17.3017C15.7071 17.1746 13.6596 17.1062 11.5925 17.0769C9.10517 17.0378 6.61294 17.0036 4.1256 16.9645L3.19224 16.9498L3.00166 16.9352C2.95279 16.9254 2.92835 16.9156 2.88926 16.9108L2.74755 16.8717C2.70357 16.8521 2.6547 16.8375 2.61072 16.8179C2.25399 16.6518 1.97056 16.3292 1.85816 15.9627C1.82884 15.8699 1.81418 15.777 1.79952 15.6793L1.79464 15.5327V15.303L1.80441 14.3697L1.82396 12.498C1.84839 10.0058 1.86794 7.5087 1.86794 5.01159V3.35988L1.87282 3.30124L1.87771 3.18396C1.87771 3.15952 1.8826 3.14975 1.8826 3.14486L1.88748 3.12532C1.89237 3.11066 1.89237 3.096 1.89237 3.08134L1.92169 2.95428L1.97056 2.82723C1.9901 2.78813 2.00965 2.74415 2.0292 2.70506C2.11716 2.5438 2.23933 2.40208 2.38593 2.28969C2.53253 2.17729 2.70357 2.09911 2.87949 2.05513C2.96745 2.03558 3.0603 2.0258 3.15803 2.02092L3.62227 2.01603L5.49877 1.9916C6.74 2.01114 7.97634 2.0258 9.21756 2.04535C11.182 2.06001 13.1465 2.07956 15.1109 2.09422L18.0576 2.10399H20.9506L21.1314 2.08933Z" fill="url(#paint0_linear_1_146)"/>
<path d="M20.912 4.1516C20.8729 3.86817 20.5797 3.85351 20.2474 3.95125C19.1479 4.25911 18.0777 4.9237 17.1003 5.72513C15.4144 7.10318 13.7041 8.45192 12.0719 9.89839C11.8276 9.69314 11.5832 9.4879 11.334 9.28755L10.5228 8.49101C8.78802 6.82953 7.01414 5.21691 5.10343 3.77533C4.56101 3.36484 3.98926 3.15471 3.73026 3.52122C3.4957 3.85351 3.65696 4.39594 4.14075 4.89438C5.01547 5.79354 5.89508 6.70247 6.83822 7.52833C7.60055 8.19781 8.38242 8.85751 9.1643 9.50745C8.90041 9.57098 8.67074 9.68826 8.47038 9.83486C7.52236 10.5288 6.52058 11.1738 5.76803 12.0925C5.65075 12.1805 5.52858 12.2636 5.4113 12.3515C4.68317 12.9233 3.98926 13.5341 3.45661 14.3111C3.30512 14.531 3.30023 14.8437 3.61787 15.1565C3.90619 15.4399 4.24826 15.5328 4.47305 15.3813C4.88353 15.1125 5.2989 14.8486 5.64586 14.5114C6.20294 13.969 6.70139 13.3631 7.22427 12.7864C8.49482 12.2929 9.28647 11.2569 10.2491 10.4115C10.6596 10.7487 11.0652 11.0907 11.4708 11.4328C11.5246 11.4963 11.5783 11.5648 11.6321 11.6283C11.7198 11.7329 11.843 11.8017 11.9781 11.8215C12.1133 11.8414 12.251 11.8108 12.3651 11.7358L12.5264 11.6283C13.1958 11.1787 13.8409 10.6998 14.4713 10.1916C14.5495 10.4115 14.6667 10.6118 14.8085 10.7829C15.561 11.6918 16.2598 12.6545 17.2225 13.3484C17.3153 13.4608 17.4082 13.5781 17.501 13.6856C18.1168 14.3795 18.7667 15.0343 19.573 15.523C19.8027 15.6598 20.1154 15.6501 20.4038 15.3129C20.6676 15.0099 20.7409 14.6629 20.5797 14.443C20.2865 14.0472 19.9982 13.6465 19.6414 13.324C19.0648 12.8011 18.4344 12.3369 17.8236 11.8482C17.3202 10.7487 16.4064 10.045 15.5806 9.26311C17.3202 7.77266 18.9671 6.16493 20.7165 4.69403C20.8582 4.59141 20.9315 4.29332 20.912 4.1516Z" fill="url(#paint1_linear_1_146)"/>
<defs>
<linearGradient id="paint0_linear_1_146" x1="14.1" y1="7.43661" x2="7.37843" y2="19.8681" gradientUnits="userSpaceOnUse">
<stop stop-color="#8FC640"/>
<stop offset="1" stop-color="#04924C"/>
</linearGradient>
<linearGradient id="paint1_linear_1_146" x1="13.6722" y1="8.09448" x2="9.43246" y2="16.7079" gradientUnits="userSpaceOnUse">
<stop stop-color="#8FC640"/>
<stop offset="1" stop-color="#04924C"/>
</linearGradient>
</defs>
</svg>
