<svg width="24" height="24" viewBox="0 0 24 24" fill="none" xmlns="http://www.w3.org/2000/svg">
<path d="M1.15939 17.3015L4.35768 14.1032C5.49993 12.961 7.44175 13.4179 7.89865 14.9028C8.24132 15.9309 9.38357 16.502 10.4116 16.2735C12.6961 15.7024 15.7802 12.7325 16.3513 10.3338C16.694 9.30575 16.0086 8.16351 14.9806 7.82088C13.4957 7.36398 13.0388 5.42216 14.181 4.27991L17.3793 1.08161C18.2931 0.28204 19.6638 0.28204 20.4634 1.08161L22.6336 3.25188C24.8039 5.53638 22.4052 11.5903 17.0366 16.9589C11.6681 22.3274 5.61415 24.8404 3.32966 22.5559L1.15939 20.3856C0.35977 19.4718 0.35977 18.1011 1.15939 17.3015Z" fill="#11974B"/>
</svg>
