<svg width="25" height="24" viewBox="0 0 25 24" fill="none" xmlns="http://www.w3.org/2000/svg">
<g clip-path="url(#clip0_109_1383)">
<path d="M20.3047 4.64062V3.51562C20.3047 1.57711 18.7276 0 16.7891 0H8.16406C6.22555 0 4.64844 1.57711 4.64844 3.51562V4.64062H20.3047ZM6.05469 14.9531V22.5938C6.05469 23.3704 6.68427 24 7.46094 24H17.4922C18.2689 24 18.8984 23.3704 18.8984 22.5938V14.9531H6.05469ZM14.3516 20.9531H10.6016C10.2133 20.9531 9.89844 20.6383 9.89844 20.25C9.89844 19.8617 10.2133 19.5469 10.6016 19.5469H14.3516C14.7399 19.5469 15.0547 19.8617 15.0547 20.25C15.0547 20.6383 14.7399 20.9531 14.3516 20.9531ZM14.3516 17.9531H10.6016C10.2133 17.9531 9.89844 17.6383 9.89844 17.25C9.89844 16.8617 10.2133 16.5469 10.6016 16.5469H14.3516C14.7399 16.5469 15.0547 16.8617 15.0547 17.25C15.0547 17.6383 14.7399 17.9531 14.3516 17.9531Z" fill="#11974B"/>
<path d="M20.9609 6.04688H4.03906C2.10055 6.04688 0.523438 7.62398 0.523438 9.5625V15.1875C0.523438 17.126 2.10055 18.7031 4.03906 18.7031H4.64844V14.9531H4.22656C3.83825 14.9531 3.52344 14.6383 3.52344 14.25C3.52344 13.8617 3.83825 13.5469 4.22656 13.5469H20.7266C21.1149 13.5469 21.4297 13.8617 21.4297 14.25C21.4297 14.6383 21.1149 14.9531 20.7266 14.9531H20.3047V18.7031H20.9609C22.8995 18.7031 24.4766 17.126 24.4766 15.1875V9.5625C24.4766 7.62398 22.8995 6.04688 20.9609 6.04688ZM6.47656 10.4531H4.22656C3.83825 10.4531 3.52344 10.1383 3.52344 9.75C3.52344 9.36169 3.83825 9.04688 4.22656 9.04688H6.47656C6.86487 9.04688 7.17969 9.36169 7.17969 9.75C7.17969 10.1383 6.86487 10.4531 6.47656 10.4531Z" fill="#11974B"/>
</g>
<defs>
<clipPath id="clip0_109_1383">
<rect width="24" height="24" fill="white" transform="translate(0.5)"/>
</clipPath>
</defs>
</svg>
