<svg width="16" height="18" viewBox="0 0 16 18" fill="none" xmlns="http://www.w3.org/2000/svg">
<path d="M8 0.400879C5.18859 0.400879 2.84375 2.80711 2.84375 5.87939C2.84375 7.04821 3.17431 8.09046 3.80872 9.06709L7.60541 15.3617C7.78959 15.6677 8.21078 15.6671 8.39459 15.3617L12.2078 9.04568C12.8285 8.1133 13.1562 7.01849 13.1562 5.87939C13.1562 2.85854 10.8432 0.400879 8 0.400879ZM8 8.36963C6.70772 8.36963 5.65625 7.25244 5.65625 5.87939C5.65625 4.50635 6.70772 3.38916 8 3.38916C9.29228 3.38916 10.3438 4.50635 10.3438 5.87939C10.3438 7.25244 9.29228 8.36963 8 8.36963Z" fill="white"/>
<path d="M11.6645 11.5911L9.30416 15.5119C8.69319 16.524 7.30341 16.5207 6.69537 15.5129L4.33119 11.5921C2.25106 12.1031 0.96875 13.0392 0.96875 14.1578C0.96875 16.099 4.5915 17.1461 8 17.1461C11.4085 17.1461 15.0312 16.099 15.0312 14.1578C15.0312 13.0384 13.7472 12.1018 11.6645 11.5911Z" fill="white"/>
</svg>
