<svg width="25" height="25" viewBox="0 0 25 25" fill="none" xmlns="http://www.w3.org/2000/svg">
<path d="M4.78911 24.3091C4.78911 23.0651 4.72817 21.8549 4.81429 20.6547C4.85962 20.0216 4.74831 19.591 4.23309 19.2173C2.18176 17.7316 1.21729 15.5473 0.71969 13.1988C0.0392711 9.98304 0.682924 7.02566 3.16487 4.68826C3.98006 3.92373 4.86992 3.24292 5.82107 2.65607C10.3851 -0.166834 15.0367 -0.227775 19.6254 2.53419C23.592 4.92195 25.0828 9.32176 23.8116 13.6108C23.0305 16.2458 20.9771 17.7406 18.745 19.0148C16.2026 20.4663 13.4245 20.9408 10.5301 20.7187C9.88948 20.6693 9.45685 20.9126 9.04236 21.3064C8.12472 22.1787 7.17083 23.0188 6.31161 23.9455C5.82258 24.4718 5.38945 24.6868 4.78911 24.3091ZM6.39371 21.9611L8.52663 20.0745C9.07157 19.5935 9.63514 19.2364 10.4369 19.3623C13.4719 19.8378 16.2812 19.0707 18.8754 17.5633C22.1899 15.6374 23.379 12.7218 22.7389 9.51415C21.8439 5.03175 18.5309 2.65154 13.7484 1.95501C9.79328 1.37884 6.66719 3.22468 3.99739 5.91312C3.27164 6.6439 2.55848 7.59226 2.31371 8.56026C1.50033 11.7836 2.05535 14.8079 4.31166 17.3679C5.12252 18.2881 6.05073 19.1045 7.01319 20.0554C6.06332 20.4563 6.21794 21.0934 6.39371 21.9611Z" fill="url(#paint0_linear_1_138)"/>
<path d="M15.3807 10.2046C15.3661 11.159 14.8927 11.6823 14.2963 11.6833C13.6401 11.6838 13.1339 11.1877 13.1516 10.5606C13.1672 9.99354 13.899 9.3232 14.5179 9.48285C14.8992 9.58157 15.1893 10.0348 15.3807 10.2046ZM9.19295 9.69589C9.84919 9.68632 10.2506 10.0369 10.2863 10.6498C10.3287 11.3781 9.96402 11.7694 9.23022 11.784C8.56188 11.7966 8.05119 11.3131 8.07587 10.6916C8.09551 10.1965 8.64801 9.70395 9.19295 9.69589ZM18.5234 11.0975C17.5186 11.0683 17.0724 10.6699 17.1293 10.12C17.1746 9.68632 17.8158 9.29248 18.4202 9.32874C18.9807 9.36148 19.4823 9.84296 19.2884 10.3048C19.1303 10.6805 18.6866 10.9374 18.5234 11.0975Z" fill="url(#paint1_linear_1_138)"/>
<defs>
<linearGradient id="paint0_linear_1_138" x1="14.4414" y1="9.81276" x2="4.5626" y2="23.7179" gradientUnits="userSpaceOnUse">
<stop stop-color="#8FC640"/>
<stop offset="1" stop-color="#04924C"/>
</linearGradient>
<linearGradient id="paint1_linear_1_138" x1="14.6879" y1="10.2801" x2="14.366" y2="12.3734" gradientUnits="userSpaceOnUse">
<stop stop-color="#8FC640"/>
<stop offset="1" stop-color="#04924C"/>
</linearGradient>
</defs>
</svg>
