<svg width="32" height="33" viewBox="0 0 32 33" fill="none" xmlns="http://www.w3.org/2000/svg">
<path d="M22.6667 5.60754H9.33342C5.33341 5.60754 2.66675 7.60754 2.66675 12.2742V21.6075C2.66675 26.2742 5.33341 28.2742 9.33342 28.2742H22.6667C26.6667 28.2742 29.3334 26.2742 29.3334 21.6075V12.2742C29.3334 7.60754 26.6667 5.60754 22.6667 5.60754ZM23.2934 13.7275L19.1201 17.0609C18.2401 17.7675 17.1201 18.1142 16.0001 18.1142C14.8801 18.1142 13.7467 17.7675 12.8801 17.0609L8.70675 13.7275C8.28008 13.3809 8.21341 12.7409 8.54675 12.3142C8.89341 11.8875 9.52008 11.8075 9.94675 12.1542L14.1201 15.4875C15.1334 16.3009 16.8534 16.3009 17.8667 15.4875L22.0401 12.1542C22.4667 11.8075 23.1067 11.8742 23.4401 12.3142C23.7867 12.7409 23.7201 13.3809 23.2934 13.7275Z" fill="#11974B"/>
</svg>
