<svg xmlns="http://www.w3.org/2000/svg" xmlns:xlink="http://www.w3.org/1999/xlink" width="690" height="450" viewBox="0 0 690 450"><defs><clipPath id="b"><rect width="690" height="450"/></clipPath></defs><g id="a" clip-path="url(#b)"><rect width="690" height="450" fill="#2a2b2c"/><path d="M572.306,62.555l-15.391-3.265c-27.375-8.766-58.928-5.812-58.928-5.812-56.045,6.615-64.756,43.159-64.756,43.159-8.284,30.688,21.178,46.472,21.178,46.472,6.23,1.7,2.116-2.474,2.116-2.474-18.722-11.646-14.172-35.745-14.172-35.745,8.712-32.768,62.264-36.5,62.264-36.5,25.748,0,68.955,14.963,68.955,14.963-6.242,4.985-23.691,32.8-23.691,32.8-19.516,36.115-54.766,38.149-54.766,38.149l-7.906.466c-5.4,1.649-.819,3.3-.819,3.3,13.283.825,36.523-5.419,36.523-5.419,43.172-7.459,70.569-61.852,70.569-61.852l2.49-2.87c.835-2.534,7.868-3.8,7.868-3.8C650.791,80.04,662.8,57.558,662.8,57.558,630.03,80.422,572.306,62.555,572.306,62.555ZM523.739,122.4c0-20.808-15.354-26.167-25.753-26.167,0,0-24.511.406-24.511,24.469,0,24.11,24.511,24.493,24.511,24.493S523.739,143.11,523.739,122.4ZM635.234,387.34H573.679s-14.934,4.352-9.351,9.351h77.112S646.44,390.445,635.234,387.34Zm-204,.62H373.4a12.357,12.357,0,0,0-10.566,8.6l76.657-.109S444.921,392.311,431.238,387.96ZM627.149,107.772c-93.7,61.386-125.2,58.886-125.2,58.886-44.823,9.161-85.423-33.186-85.423-33.186l-4.7,5.812-2.985-2.08-47.888-1.231v5.583l48.17,1.088-3.648,4.487-5.925-.575-34.2-.646-2.515,1.912,3.1,2.438,4.969,1.281,10.583,10.573h31.642c.887.992,1.765,2.01,2.7,3.109H378.349L368.44,384.848h64.651l-8.868-209.4c10.625,13.622,22.74,31.845,31.152,52.693,31.759,78.654,53.779,188.914,53.779,188.914s9.753-85.232,34.184-154.762c10.562-28.966,24.566-57.308,38.1-81.7l-10.91,203.664h65.287L626.539,166.48l-37.072-.071c.621-1.065,1.218-2.01,1.828-3.062h37.086l4.95-2.463,4.438-5.657,3.036-1.234v-4.339H599.522c.885-1.448,1.809-2.966,2.669-4.354H645.16v-7.451H606.914C618.777,119.24,627.149,107.772,627.149,107.772Z" transform="translate(-166.95 -1.65)" fill="#fff"/></g></svg>